<mxfile host="app.diagrams.net" modified="2021-03-21T06:24:14.626Z" agent="5.0 (Macintosh; Intel Mac OS X 10_15_6) AppleWebKit/605.1.15 (KHTML, like Gecko) Version/14.0.3 Safari/605.1.15" etag="o1uaEV-9XbnRS0gIf3Bi" version="14.4.9" type="github">
  <diagram id="5i8FbSUl0ykrvZ4Om3Pv" name="第 1 页">
    <mxGraphModel dx="937" dy="541" grid="1" gridSize="10" guides="1" tooltips="1" connect="1" arrows="1" fold="1" page="1" pageScale="1" pageWidth="827" pageHeight="1169" math="0" shadow="0">
      <root>
        <mxCell id="0" />
        <mxCell id="1" parent="0" />
        <mxCell id="6zdlRFg72WAXvdKUTAZJ-2" value="" style="shape=mxgraph.signs.transportation.motorcycle;html=1;pointerEvents=1;fillColor=#000000;strokeColor=none;verticalLabelPosition=bottom;verticalAlign=top;align=center;" vertex="1" parent="1">
          <mxGeometry x="320" y="240" width="150" height="90" as="geometry" />
        </mxCell>
        <mxCell id="6zdlRFg72WAXvdKUTAZJ-3" value="凉了！今天面试没答好&lt;br style=&quot;font-size: 16px&quot;&gt;「&lt;font color=&quot;#3333ff&quot;&gt;&lt;b&gt;缓存雪崩、缓存击穿、缓存穿透&lt;/b&gt;&lt;/font&gt;」..." style="shape=callout;whiteSpace=wrap;html=1;perimeter=calloutPerimeter;fontSize=16;fillColor=#f9f7ed;strokeColor=#CCE5FF;" vertex="1" parent="1">
          <mxGeometry x="290" y="140" width="280" height="110" as="geometry" />
        </mxCell>
      </root>
    </mxGraphModel>
  </diagram>
</mxfile>
